{
  "asset" : {
    "generator" : "UE Viewer (umodel) build 1590",
    "version" : "2.0"
  },
  "scene" : 0,
  "scenes" : [
    {
      "nodes" : [ 0 ]
    }
  ],
  "nodes" : [
    {
      "name" : "SM_Boom_Barrier_1",
      "mesh" : 0
    }
  ],
  "materials" : [
    {
      "name" : "Mat_Boom_Barrier_1",
      "pbrMetallicRoughness" : {
        "baseColorFactor" : [ 0.3, 0.3, 0.3, 1.0 ],
        "metallicFactor" : 0.1,
        "roughnessFactor" : 0.5
      }
    },
    {
      "name" : "Mat_Steel_1",
      "pbrMetallicRoughness" : {
        "baseColorFactor" : [ 0.9, 0.3, 0.3, 1.0 ],
        "metallicFactor" : 0.1,
        "roughnessFactor" : 0.5
      }
    },
    {
      "name" : "Mat_Boom_Barrier_1",
      "pbrMetallicRoughness" : {
        "baseColorFactor" : [ 0.3, 0.9, 0.3, 1.0 ],
        "metallicFactor" : 0.1,
        "roughnessFactor" : 0.5
      }
    },
    {
      "name" : "Mat_Steel_1",
      "pbrMetallicRoughness" : {
        "baseColorFactor" : [ 0.3, 0.3, 0.9, 1.0 ],
        "metallicFactor" : 0.1,
        "roughnessFactor" : 0.5
      }
    }
  ],
  "meshes" : [
    {
      "primitives" : [
        {
          "attributes" : {
            "POSITION" : 1,
            "NORMAL" : 2,
            "TANGENT" : 3,
            "TEXCOORD_0" : 4
          },
          "indices" : 0,
          "material" : 0
        },
        {
          "attributes" : {
            "POSITION" : 6,
            "NORMAL" : 7,
            "TANGENT" : 8,
            "TEXCOORD_0" : 9
          },
          "indices" : 5,
          "material" : 1
        },
        {
          "attributes" : {
            "POSITION" : 11,
            "NORMAL" : 12,
            "TANGENT" : 13,
            "TEXCOORD_0" : 14
          },
          "indices" : 10,
          "material" : 2
        },
        {
          "attributes" : {
            "POSITION" : 16,
            "NORMAL" : 17,
            "TANGENT" : 18,
            "TEXCOORD_0" : 19
          },
          "indices" : 15,
          "material" : 3
        }
      ],
      "name" : "SM_Boom_Barrier_1"
    }
  ],
  "buffers" : [
    {
      "uri" : "SM_Boom_Barrier_1.bin",
      "byteLength" : 136500
    }
  ],
  "bufferViews" : [
    {
      "buffer" : 0,
      "byteOffset" : 0,
      "byteLength" : 60
    },
    {
      "buffer" : 0,
      "byteOffset" : 60,
      "byteLength" : 360
    },
    {
      "buffer" : 0,
      "byteOffset" : 420,
      "byteLength" : 360
    },
    {
      "buffer" : 0,
      "byteOffset" : 780,
      "byteLength" : 480
    },
    {
      "buffer" : 0,
      "byteOffset" : 1260,
      "byteLength" : 240
    },
    {
      "buffer" : 0,
      "byteOffset" : 1500,
      "byteLength" : 3852
    },
    {
      "buffer" : 0,
      "byteOffset" : 5352,
      "byteLength" : 23112
    },
    {
      "buffer" : 0,
      "byteOffset" : 28464,
      "byteLength" : 23112
    },
    {
      "buffer" : 0,
      "byteOffset" : 51576,
      "byteLength" : 30816
    },
    {
      "buffer" : 0,
      "byteOffset" : 82392,
      "byteLength" : 15408
    },
    {
      "buffer" : 0,
      "byteOffset" : 97800,
      "byteLength" : 828
    },
    {
      "buffer" : 0,
      "byteOffset" : 98628,
      "byteLength" : 4968
    },
    {
      "buffer" : 0,
      "byteOffset" : 103596,
      "byteLength" : 4968
    },
    {
      "buffer" : 0,
      "byteOffset" : 108564,
      "byteLength" : 6624
    },
    {
      "buffer" : 0,
      "byteOffset" : 115188,
      "byteLength" : 3312
    },
    {
      "buffer" : 0,
      "byteOffset" : 118500,
      "byteLength" : 720
    },
    {
      "buffer" : 0,
      "byteOffset" : 119220,
      "byteLength" : 4320
    },
    {
      "buffer" : 0,
      "byteOffset" : 123540,
      "byteLength" : 4320
    },
    {
      "buffer" : 0,
      "byteOffset" : 127860,
      "byteLength" : 5760
    },
    {
      "buffer" : 0,
      "byteOffset" : 133620,
      "byteLength" : 2880
    }
  ],
  "accessors" : [
    {
      "bufferView" : 0,
      "componentType" : 5123,
      "count" : 30,
      "type" : "SCALAR"
    },
    {
      "bufferView" : 1,
      "min" : [ 0.312397, 0.980102, 0.070127 ],
      "max" : [ 3.74441, 1.03257, 0.0850098 ],
      "componentType" : 5126,
      "count" : 30,
      "type" : "VEC3"
    },
    {
      "bufferView" : 2,
      "componentType" : 5126,
      "count" : 30,
      "type" : "VEC3"
    },
    {
      "bufferView" : 3,
      "componentType" : 5126,
      "count" : 30,
      "type" : "VEC4"
    },
    {
      "bufferView" : 4,
      "componentType" : 5126,
      "count" : 30,
      "type" : "VEC2"
    },
    {
      "bufferView" : 5,
      "componentType" : 5123,
      "count" : 1926,
      "type" : "SCALAR"
    },
    {
      "bufferView" : 6,
      "min" : [ 0.229819, 0.94947, 0.0418262 ],
      "max" : [ 0.334995, 1.05464, 0.11603 ],
      "componentType" : 5126,
      "count" : 1926,
      "type" : "VEC3"
    },
    {
      "bufferView" : 7,
      "componentType" : 5126,
      "count" : 1926,
      "type" : "VEC3"
    },
    {
      "bufferView" : 8,
      "componentType" : 5126,
      "count" : 1926,
      "type" : "VEC4"
    },
    {
      "bufferView" : 9,
      "componentType" : 5126,
      "count" : 1926,
      "type" : "VEC2"
    },
    {
      "bufferView" : 10,
      "componentType" : 5123,
      "count" : 414,
      "type" : "SCALAR"
    },
    {
      "bufferView" : 11,
      "min" : [ -0.0561523, -0.00613645, -0 ],
      "max" : [ 0.301089, 1.10188, 0.166187 ],
      "componentType" : 5126,
      "count" : 414,
      "type" : "VEC3"
    },
    {
      "bufferView" : 12,
      "componentType" : 5126,
      "count" : 414,
      "type" : "VEC3"
    },
    {
      "bufferView" : 13,
      "componentType" : 5126,
      "count" : 414,
      "type" : "VEC4"
    },
    {
      "bufferView" : 14,
      "componentType" : 5126,
      "count" : 414,
      "type" : "VEC2"
    },
    {
      "bufferView" : 15,
      "componentType" : 5123,
      "count" : 360,
      "type" : "SCALAR"
    },
    {
      "bufferView" : 16,
      "min" : [ 0.030332, -0.00613646, 0.0590479 ],
      "max" : [ 0.0652637, 0.908741, 0.111514 ],
      "componentType" : 5126,
      "count" : 360,
      "type" : "VEC3"
    },
    {
      "bufferView" : 17,
      "componentType" : 5126,
      "count" : 360,
      "type" : "VEC3"
    },
    {
      "bufferView" : 18,
      "componentType" : 5126,
      "count" : 360,
      "type" : "VEC4"
    },
    {
      "bufferView" : 19,
      "componentType" : 5126,
      "count" : 360,
      "type" : "VEC2"
    }
  ]
}
