{
  "asset" : {
    "generator" : "UE Viewer (umodel) build 1590",
    "version" : "2.0"
  },
  "scene" : 0,
  "scenes" : [
    {
      "nodes" : [ 0 ]
    }
  ],
  "nodes" : [
    {
      "name" : "SM_Camera_1",
      "mesh" : 0
    }
  ],
  "materials" : [
    {
      "name" : "Mat_Camera_1",
      "pbrMetallicRoughness" : {
        "baseColorFactor" : [ 0.3, 0.3, 0.3, 1.0 ],
        "metallicFactor" : 0.1,
        "roughnessFactor" : 0.5
      }
    }
  ],
  "meshes" : [
    {
      "primitives" : [
        {
          "attributes" : {
            "POSITION" : 1,
            "NORMAL" : 2,
            "TANGENT" : 3,
            "TEXCOORD_0" : 4
          },
          "indices" : 0,
          "material" : 0
        }
      ],
      "name" : "SM_Camera_1"
    }
  ],
  "buffers" : [
    {
      "uri" : "SM_Camera_1.bin",
      "byteLength" : 136952
    }
  ],
  "bufferViews" : [
    {
      "buffer" : 0,
      "byteOffset" : 0,
      "byteLength" : 5480
    },
    {
      "buffer" : 0,
      "byteOffset" : 5480,
      "byteLength" : 32868
    },
    {
      "buffer" : 0,
      "byteOffset" : 38348,
      "byteLength" : 32868
    },
    {
      "buffer" : 0,
      "byteOffset" : 71216,
      "byteLength" : 43824
    },
    {
      "buffer" : 0,
      "byteOffset" : 115040,
      "byteLength" : 21912
    }
  ],
  "accessors" : [
    {
      "bufferView" : 0,
      "componentType" : 5123,
      "count" : 2739,
      "type" : "SCALAR"
    },
    {
      "bufferView" : 1,
      "min" : [ -0.0885901, 0, -0.490341 ],
      "max" : [ 0.177159, 0.406482, 0.00105286 ],
      "componentType" : 5126,
      "count" : 2739,
      "type" : "VEC3"
    },
    {
      "bufferView" : 2,
      "componentType" : 5126,
      "count" : 2739,
      "type" : "VEC3"
    },
    {
      "bufferView" : 3,
      "componentType" : 5126,
      "count" : 2739,
      "type" : "VEC4"
    },
    {
      "bufferView" : 4,
      "componentType" : 5126,
      "count" : 2739,
      "type" : "VEC2"
    }
  ]
}
