{
  "asset" : {
    "generator" : "UE Viewer (umodel) build 1590",
    "version" : "2.0"
  },
  "scene" : 0,
  "scenes" : [
    {
      "nodes" : [ 0 ]
    }
  ],
  "nodes" : [
    {
      "name" : "SM_Light_3",
      "mesh" : 0
    }
  ],
  "materials" : [
    {
      "name" : "Mat_Steel_1",
      "pbrMetallicRoughness" : {
        "baseColorFactor" : [ 0.3, 0.3, 0.3, 1.0 ],
        "metallicFactor" : 0.1,
        "roughnessFactor" : 0.5
      }
    },
    {
      "name" : "Mat_Emessive_1",
      "pbrMetallicRoughness" : {
        "baseColorFactor" : [ 0.9, 0.3, 0.3, 1.0 ],
        "metallicFactor" : 0.1,
        "roughnessFactor" : 0.5
      }
    }
  ],
  "meshes" : [
    {
      "primitives" : [
        {
          "attributes" : {
            "POSITION" : 1,
            "NORMAL" : 2,
            "TANGENT" : 3,
            "TEXCOORD_0" : 4,
            "TEXCOORD_1" : 5
          },
          "indices" : 0,
          "material" : 0
        },
        {
          "attributes" : {
            "POSITION" : 7,
            "NORMAL" : 8,
            "TANGENT" : 9,
            "TEXCOORD_0" : 10,
            "TEXCOORD_1" : 11
          },
          "indices" : 6,
          "material" : 1
        }
      ],
      "name" : "SM_Light_3"
    }
  ],
  "buffers" : [
    {
      "uri" : "SM_Light_3.bin",
      "byteLength" : 174696
    }
  ],
  "bufferViews" : [
    {
      "buffer" : 0,
      "byteOffset" : 0,
      "byteLength" : 4584
    },
    {
      "buffer" : 0,
      "byteOffset" : 4584,
      "byteLength" : 27504
    },
    {
      "buffer" : 0,
      "byteOffset" : 32088,
      "byteLength" : 27504
    },
    {
      "buffer" : 0,
      "byteOffset" : 59592,
      "byteLength" : 36672
    },
    {
      "buffer" : 0,
      "byteOffset" : 96264,
      "byteLength" : 18336
    },
    {
      "buffer" : 0,
      "byteOffset" : 114600,
      "byteLength" : 18336
    },
    {
      "buffer" : 0,
      "byteOffset" : 132936,
      "byteLength" : 1440
    },
    {
      "buffer" : 0,
      "byteOffset" : 134376,
      "byteLength" : 8640
    },
    {
      "buffer" : 0,
      "byteOffset" : 143016,
      "byteLength" : 8640
    },
    {
      "buffer" : 0,
      "byteOffset" : 151656,
      "byteLength" : 11520
    },
    {
      "buffer" : 0,
      "byteOffset" : 163176,
      "byteLength" : 5760
    },
    {
      "buffer" : 0,
      "byteOffset" : 168936,
      "byteLength" : 5760
    }
  ],
  "accessors" : [
    {
      "bufferView" : 0,
      "componentType" : 5123,
      "count" : 2292,
      "type" : "SCALAR"
    },
    {
      "bufferView" : 1,
      "min" : [ -0.277544, -0.0960917, -0.0707318 ],
      "max" : [ 0.233466, 0.0960915, 0.0543454 ],
      "componentType" : 5126,
      "count" : 2292,
      "type" : "VEC3"
    },
    {
      "bufferView" : 2,
      "componentType" : 5126,
      "count" : 2292,
      "type" : "VEC3"
    },
    {
      "bufferView" : 3,
      "componentType" : 5126,
      "count" : 2292,
      "type" : "VEC4"
    },
    {
      "bufferView" : 4,
      "componentType" : 5126,
      "count" : 2292,
      "type" : "VEC2"
    },
    {
      "bufferView" : 5,
      "componentType" : 5126,
      "count" : 2292,
      "type" : "VEC2"
    },
    {
      "bufferView" : 6,
      "componentType" : 5123,
      "count" : 720,
      "type" : "SCALAR"
    },
    {
      "bufferView" : 7,
      "min" : [ -0.25814, -0.091601, -0.0519715 ],
      "max" : [ 0.213748, 0.0907598, 0.044023 ],
      "componentType" : 5126,
      "count" : 720,
      "type" : "VEC3"
    },
    {
      "bufferView" : 8,
      "componentType" : 5126,
      "count" : 720,
      "type" : "VEC3"
    },
    {
      "bufferView" : 9,
      "componentType" : 5126,
      "count" : 720,
      "type" : "VEC4"
    },
    {
      "bufferView" : 10,
      "componentType" : 5126,
      "count" : 720,
      "type" : "VEC2"
    },
    {
      "bufferView" : 11,
      "componentType" : 5126,
      "count" : 720,
      "type" : "VEC2"
    }
  ]
}
