{
  "asset" : {
    "generator" : "UE Viewer (umodel) build 1590",
    "version" : "2.0"
  },
  "scene" : 0,
  "scenes" : [
    {
      "nodes" : [ 0 ]
    }
  ],
  "nodes" : [
    {
      "name" : "SM_Stop_Sign_1",
      "mesh" : 0
    }
  ],
  "materials" : [
    {
      "name" : "Mat_Steel_4",
      "pbrMetallicRoughness" : {
        "baseColorFactor" : [ 0.3, 0.3, 0.3, 1.0 ],
        "metallicFactor" : 0.1,
        "roughnessFactor" : 0.5
      }
    },
    {
      "name" : "Mat_Steel_2",
      "pbrMetallicRoughness" : {
        "baseColorFactor" : [ 0.9, 0.3, 0.3, 1.0 ],
        "metallicFactor" : 0.1,
        "roughnessFactor" : 0.5
      }
    },
    {
      "name" : "Mat_Stop_Sign_1",
      "pbrMetallicRoughness" : {
        "baseColorFactor" : [ 0.3, 0.9, 0.3, 1.0 ],
        "metallicFactor" : 0.1,
        "roughnessFactor" : 0.5
      }
    }
  ],
  "meshes" : [
    {
      "primitives" : [
        {
          "attributes" : {
            "POSITION" : 1,
            "NORMAL" : 2,
            "TANGENT" : 3,
            "TEXCOORD_0" : 4,
            "TEXCOORD_1" : 5,
            "TEXCOORD_2" : 6
          },
          "indices" : 0,
          "material" : 0
        },
        {
          "attributes" : {
            "POSITION" : 8,
            "NORMAL" : 9,
            "TANGENT" : 10,
            "TEXCOORD_0" : 11,
            "TEXCOORD_1" : 12,
            "TEXCOORD_2" : 13
          },
          "indices" : 7,
          "material" : 1
        },
        {
          "attributes" : {
            "POSITION" : 15,
            "NORMAL" : 16,
            "TANGENT" : 17,
            "TEXCOORD_0" : 18,
            "TEXCOORD_1" : 19,
            "TEXCOORD_2" : 20
          },
          "indices" : 14,
          "material" : 2
        }
      ],
      "name" : "SM_Stop_Sign_1"
    }
  ],
  "buffers" : [
    {
      "uri" : "SM_Stop_Sign_1.bin",
      "byteLength" : 15048
    }
  ],
  "bufferViews" : [
    {
      "buffer" : 0,
      "byteOffset" : 0,
      "byteLength" : 264
    },
    {
      "buffer" : 0,
      "byteOffset" : 264,
      "byteLength" : 1584
    },
    {
      "buffer" : 0,
      "byteOffset" : 1848,
      "byteLength" : 1584
    },
    {
      "buffer" : 0,
      "byteOffset" : 3432,
      "byteLength" : 2112
    },
    {
      "buffer" : 0,
      "byteOffset" : 5544,
      "byteLength" : 1056
    },
    {
      "buffer" : 0,
      "byteOffset" : 6600,
      "byteLength" : 1056
    },
    {
      "buffer" : 0,
      "byteOffset" : 7656,
      "byteLength" : 1056
    },
    {
      "buffer" : 0,
      "byteOffset" : 8712,
      "byteLength" : 144
    },
    {
      "buffer" : 0,
      "byteOffset" : 8856,
      "byteLength" : 864
    },
    {
      "buffer" : 0,
      "byteOffset" : 9720,
      "byteLength" : 864
    },
    {
      "buffer" : 0,
      "byteOffset" : 10584,
      "byteLength" : 1152
    },
    {
      "buffer" : 0,
      "byteOffset" : 11736,
      "byteLength" : 576
    },
    {
      "buffer" : 0,
      "byteOffset" : 12312,
      "byteLength" : 576
    },
    {
      "buffer" : 0,
      "byteOffset" : 12888,
      "byteLength" : 576
    },
    {
      "buffer" : 0,
      "byteOffset" : 13464,
      "byteLength" : 48
    },
    {
      "buffer" : 0,
      "byteOffset" : 13512,
      "byteLength" : 288
    },
    {
      "buffer" : 0,
      "byteOffset" : 13800,
      "byteLength" : 288
    },
    {
      "buffer" : 0,
      "byteOffset" : 14088,
      "byteLength" : 384
    },
    {
      "buffer" : 0,
      "byteOffset" : 14472,
      "byteLength" : 192
    },
    {
      "buffer" : 0,
      "byteOffset" : 14664,
      "byteLength" : 192
    },
    {
      "buffer" : 0,
      "byteOffset" : 14856,
      "byteLength" : 192
    }
  ],
  "accessors" : [
    {
      "bufferView" : 0,
      "componentType" : 5123,
      "count" : 132,
      "type" : "SCALAR"
    },
    {
      "bufferView" : 1,
      "min" : [ -0.0546947, -7.66516e-07, -0.0465398 ],
      "max" : [ 0.0689199, 2.47277, -0.0125009 ],
      "componentType" : 5126,
      "count" : 132,
      "type" : "VEC3"
    },
    {
      "bufferView" : 2,
      "componentType" : 5126,
      "count" : 132,
      "type" : "VEC3"
    },
    {
      "bufferView" : 3,
      "componentType" : 5126,
      "count" : 132,
      "type" : "VEC4"
    },
    {
      "bufferView" : 4,
      "componentType" : 5126,
      "count" : 132,
      "type" : "VEC2"
    },
    {
      "bufferView" : 5,
      "componentType" : 5126,
      "count" : 132,
      "type" : "VEC2"
    },
    {
      "bufferView" : 6,
      "componentType" : 5126,
      "count" : 132,
      "type" : "VEC2"
    },
    {
      "bufferView" : 7,
      "componentType" : 5123,
      "count" : 72,
      "type" : "SCALAR"
    },
    {
      "bufferView" : 8,
      "min" : [ -0.368413, 2.03115, -0.0126061 ],
      "max" : [ 0.374528, 2.77409, 0.00620641 ],
      "componentType" : 5126,
      "count" : 72,
      "type" : "VEC3"
    },
    {
      "bufferView" : 9,
      "componentType" : 5126,
      "count" : 72,
      "type" : "VEC3"
    },
    {
      "bufferView" : 10,
      "componentType" : 5126,
      "count" : 72,
      "type" : "VEC4"
    },
    {
      "bufferView" : 11,
      "componentType" : 5126,
      "count" : 72,
      "type" : "VEC2"
    },
    {
      "bufferView" : 12,
      "componentType" : 5126,
      "count" : 72,
      "type" : "VEC2"
    },
    {
      "bufferView" : 13,
      "componentType" : 5126,
      "count" : 72,
      "type" : "VEC2"
    },
    {
      "bufferView" : 14,
      "componentType" : 5123,
      "count" : 24,
      "type" : "SCALAR"
    },
    {
      "bufferView" : 15,
      "min" : [ -0.368413, 2.03115, 0.00620641 ],
      "max" : [ 0.374528, 2.77409, 0.00620641 ],
      "componentType" : 5126,
      "count" : 24,
      "type" : "VEC3"
    },
    {
      "bufferView" : 16,
      "componentType" : 5126,
      "count" : 24,
      "type" : "VEC3"
    },
    {
      "bufferView" : 17,
      "componentType" : 5126,
      "count" : 24,
      "type" : "VEC4"
    },
    {
      "bufferView" : 18,
      "componentType" : 5126,
      "count" : 24,
      "type" : "VEC2"
    },
    {
      "bufferView" : 19,
      "componentType" : 5126,
      "count" : 24,
      "type" : "VEC2"
    },
    {
      "bufferView" : 20,
      "componentType" : 5126,
      "count" : 24,
      "type" : "VEC2"
    }
  ]
}
