{
  "asset" : {
    "generator" : "UE Viewer (umodel) build 1590",
    "version" : "2.0"
  },
  "scene" : 0,
  "scenes" : [
    {
      "nodes" : [ 0 ]
    }
  ],
  "nodes" : [
    {
      "name" : "SM_Speed_Sign_1",
      "mesh" : 0
    }
  ],
  "materials" : [
    {
      "name" : "Mat_Steel_4",
      "pbrMetallicRoughness" : {
        "baseColorFactor" : [ 0.3, 0.3, 0.3, 1.0 ],
        "metallicFactor" : 0.1,
        "roughnessFactor" : 0.5
      }
    },
    {
      "name" : "Mat_Speed_Sign_1",
      "pbrMetallicRoughness" : {
        "baseColorFactor" : [ 0.9, 0.3, 0.3, 1.0 ],
        "metallicFactor" : 0.1,
        "roughnessFactor" : 0.5
      }
    }
  ],
  "meshes" : [
    {
      "primitives" : [
        {
          "attributes" : {
            "POSITION" : 1,
            "NORMAL" : 2,
            "TANGENT" : 3,
            "TEXCOORD_0" : 4,
            "TEXCOORD_1" : 5
          },
          "indices" : 0,
          "material" : 0
        },
        {
          "attributes" : {
            "POSITION" : 7,
            "NORMAL" : 8,
            "TANGENT" : 9,
            "TEXCOORD_0" : 10,
            "TEXCOORD_1" : 11
          },
          "indices" : 6,
          "material" : 1
        }
      ],
      "name" : "SM_Speed_Sign_1"
    }
  ],
  "buffers" : [
    {
      "uri" : "SM_Speed_Sign_1.bin",
      "byteLength" : 15312
    }
  ],
  "bufferViews" : [
    {
      "buffer" : 0,
      "byteOffset" : 0,
      "byteLength" : 468
    },
    {
      "buffer" : 0,
      "byteOffset" : 468,
      "byteLength" : 2808
    },
    {
      "buffer" : 0,
      "byteOffset" : 3276,
      "byteLength" : 2808
    },
    {
      "buffer" : 0,
      "byteOffset" : 6084,
      "byteLength" : 3744
    },
    {
      "buffer" : 0,
      "byteOffset" : 9828,
      "byteLength" : 1872
    },
    {
      "buffer" : 0,
      "byteOffset" : 11700,
      "byteLength" : 1872
    },
    {
      "buffer" : 0,
      "byteOffset" : 13572,
      "byteLength" : 60
    },
    {
      "buffer" : 0,
      "byteOffset" : 13632,
      "byteLength" : 360
    },
    {
      "buffer" : 0,
      "byteOffset" : 13992,
      "byteLength" : 360
    },
    {
      "buffer" : 0,
      "byteOffset" : 14352,
      "byteLength" : 480
    },
    {
      "buffer" : 0,
      "byteOffset" : 14832,
      "byteLength" : 240
    },
    {
      "buffer" : 0,
      "byteOffset" : 15072,
      "byteLength" : 240
    }
  ],
  "accessors" : [
    {
      "bufferView" : 0,
      "componentType" : 5123,
      "count" : 234,
      "type" : "SCALAR"
    },
    {
      "bufferView" : 1,
      "min" : [ -0.353688, -7.66516e-07, -0.0465398 ],
      "max" : [ 0.382438, 2.99161, 0.0125004 ],
      "componentType" : 5126,
      "count" : 234,
      "type" : "VEC3"
    },
    {
      "bufferView" : 2,
      "componentType" : 5126,
      "count" : 234,
      "type" : "VEC3"
    },
    {
      "bufferView" : 3,
      "componentType" : 5126,
      "count" : 234,
      "type" : "VEC4"
    },
    {
      "bufferView" : 4,
      "componentType" : 5126,
      "count" : 234,
      "type" : "VEC2"
    },
    {
      "bufferView" : 5,
      "componentType" : 5126,
      "count" : 234,
      "type" : "VEC2"
    },
    {
      "bufferView" : 6,
      "componentType" : 5123,
      "count" : 30,
      "type" : "SCALAR"
    },
    {
      "bufferView" : 7,
      "min" : [ -0.353688, 1.86485, 0.0125004 ],
      "max" : [ 0.382438, 2.99161, 0.0125004 ],
      "componentType" : 5126,
      "count" : 30,
      "type" : "VEC3"
    },
    {
      "bufferView" : 8,
      "componentType" : 5126,
      "count" : 30,
      "type" : "VEC3"
    },
    {
      "bufferView" : 9,
      "componentType" : 5126,
      "count" : 30,
      "type" : "VEC4"
    },
    {
      "bufferView" : 10,
      "componentType" : 5126,
      "count" : 30,
      "type" : "VEC2"
    },
    {
      "bufferView" : 11,
      "componentType" : 5126,
      "count" : 30,
      "type" : "VEC2"
    }
  ]
}
